PathFileType	4	(X/Y/Z)	C:/Users/opensim2020/Desktop/walking_exp_matlab/subject03_walking15_straight_03.trc																																																																																																																																											
DataRate	CameraRate	NumFrames	NumMarkers	Units	OrigDataRate	OrigDataStartFrame	OrigNumFrames																																																																																																																																							
100	100	9	47	mm	100	1714	220																																																																																																																																							
Frame#	Time	LFHD			RFHD			LBHD			RBHD			C7			T10			CLAV			STRN			RBAK			LSHO			LUPA			LELB			LFRM			LWRA			LWRB			LFIN			RSHO			RUPA			RELB			RFRM			RWRA			RWRB			RFIN			LASI			RASI			LPSI			RPSI			LTHI			LKNE			LTIB			LANK			LHEE			LTOE			RTHI			RKNE			RTIB			RANK			RHEE			RTOE			*39			*40			*41			*42			*43			*44			*45			*46		
		X1	Y1	Z1	X2	Y2	Z2	X3	Y3	Z3	X4	Y4	Z4	X5	Y5	Z5	X6	Y6	Z6	X7	Y7	Z7	X8	Y8	Z8	X9	Y9	Z9	X10	Y10	Z10	X11	Y11	Z11	X12	Y12	Z12	X13	Y13	Z13	X14	Y14	Z14	X15	Y15	Z15	X16	Y16	Z16	X17	Y17	Z17	X18	Y18	Z18	X19	Y19	Z19	X20	Y20	Z20	X21	Y21	Z21	X22	Y22	Z22	X23	Y23	Z23	X24	Y24	Z24	X25	Y25	Z25	X26	Y26	Z26	X27	Y27	Z27	X28	Y28	Z28	X29	Y29	Z29	X30	Y30	Z30	X31	Y31	Z31	X32	Y32	Z32	X33	Y33	Z33	X34	Y34	Z34	X35	Y35	Z35	X36	Y36	Z36	X37	Y37	Z37	X38	Y38	Z38	X39	Y39	Z39	X40	Y40	Z40	X41	Y41	Z41	X42	Y42	Z42	X43	Y43	Z43	X44	Y44	Z44	X45	Y45	Z45	X46	Y46	Z46	X47	Y47	Z47
																																																																																																																																														
138	1.37	298.60614	1625.76611	1338.76758	300.40533	1636.354	1471.28125	185.00357	1554.44409	1349.24402	191.10818	1565.15259	1479.47302	186.83347	1402.70325	1398.32019	179.75043	1092.89844	1394.7063	315.12177	1340.83472	1411.55408	376.55264	1180.17371	1408.09546	144.56604	1222.34717	1481.3429	284.25275	1376.38928	1252.64514	326.29984	1189.17615	1174.93652	368.64218	1073.78333	1160.50964	436.92883	963.133	1167.86401	490.42105	858.72894	1204.09851	477.54385	857.95697	1150.06299	524.36902	790.93304	1161.73132	246.55093	1356.13281	1565.39014	231.41124	1134.59912	1636.78882	236.94545	1022.94415	1655.68115	240.21962	885.92389	1665.26575	269.06073	786.15961	1640.85486	227.99117	786.41931	1676.57507	244.77559	712.01141	1672.38452	349.57373	938.56055	1286.5072	337.97836	936.20239	1521.98767	185.52957	958.66577	1330.07776	178.52478	956.60699	1477.94348	269.32068	637.66663	1250.94226	241.78499	463.24771	1293.86279	157.18643	281.96112	1288.98279	97.12397	79.55604	1332.24597	48.20926	51.09077	1364.95374	241.93539	33.83138	1368.57178	368.54056	649.48328	1571.52893	452.09186	490.70734	1547.37598	417.81482	300.0509	1550.74146	402.34381	83.64874	1506.95911	363.55923	50.68808	1449.96387	538.66559	46.72695	1504.43005	205.38614	1668.44299	1391.47095	NaN	NaN	NaN	NaN	NaN	NaN	NaN	NaN	NaN	NaN	NaN	NaN	NaN	NaN	NaN	NaN	NaN	NaN	NaN	NaN	NaN
139	1.38	312.06863	1624.698	1338.91382	314.02176	1635.00818	1471.70081	198.39049	1553.32532	1349.87268	204.69655	1563.89539	1480.08606	200.21478	1401.42249	1398.8656	193.07596	1091.53955	1395.55408	328.49744	1339.57996	1411.47095	389.94244	1178.88916	1407.77454	158.38931	1220.56348	1481.58972	296.96762	1375.24329	1252.96545	341.21109	1189.17065	1175.09998	385.92667	1074.67456	1160.52588	458.45309	966.9281	1168.94348	516.53058	865.66675	1206.74817	503.25467	863.1264	1152.88306	552.41193	797.84009	1165.85474	260.23245	1354.58289	1565.76453	244.14297	1133.00354	1636.7533	248.72713	1021.26093	1655.66211	249.61702	884.32385	1665.52014	276.85925	783.84045	1641.5426	235.30585	785.11237	1676.99719	250.63048	710.42456	1673.06348	361.27213	936.82404	1285.97156	352.47601	934.80884	1521.73389	197.88673	957.3418	1331.75476	192.55107	955.22253	1479.59448	277.34662	636.96973	1250.93298	247.37488	462.88193	1294.10693	160.31883	282.83789	1289.57532	97.5797	81.14707	1332.92249	48.68048	52.87832	1365.51245	241.92131	33.62413	1368.99011	381.53036	647.94293	1572.04883	464.77911	489.07828	1547.28406	441.28171	297.72849	1552.76538	441.3587	80.2819	1511.14832	403.83972	45.47435	1454.30469	579.38678	48.89206	1507.35901	218.6821	1666.5415	1392.13696	NaN	NaN	NaN	NaN	NaN	NaN	NaN	NaN	NaN	NaN	NaN	NaN	NaN	NaN	NaN	NaN	NaN	NaN	NaN	NaN	NaN
140	1.39	325.44186	1623.37219	1339.37122	327.70706	1633.62256	1472.16138	211.81691	1552.10535	1350.44531	218.30576	1562.58459	1480.66565	213.63365	1400.13977	1399.49976	206.53673	1090.25745	1396.55542	341.92764	1338.22412	1411.65845	403.3757	1177.56372	1407.39404	172.27026	1218.85364	1482.01807	309.65549	1374.0387	1253.33105	355.90533	1189.05115	1175.31995	402.68411	1075.4447	1160.60278	479.28769	970.77618	1170.03784	541.901	873.01843	1209.46509	528.35492	868.62451	1155.95923	579.74036	805.2713	1170.07556	274.06146	1353.1394	1566.21509	257.16843	1131.56104	1636.82458	260.77167	1019.90796	1655.98804	259.59695	882.79962	1665.79553	285.18857	781.73981	1642.07825	243.51605	783.88684	1677.3844	257.02307	708.78589	1673.50671	373.52246	935.23071	1285.76123	367.41083	933.547	1521.59241	210.42691	955.7265	1333.47559	206.78185	953.91205	1481.36755	286.28189	636.22528	1251.80481	253.63211	462.18085	1294.32483	163.92294	283.61948	1290.21277	98.20699	82.83114	1333.55017	48.91191	55.48277	1366.46863	241.96587	33.48247	1369.1167	393.77396	645.90021	1573.24548	477.15048	487.25696	1546.83582	464.23367	296.00568	1554.91614	477.89249	78.3686	1515.08081	441.86829	42.38077	1458.71863	617.88586	51.91287	1509.87573	232.58734	1666.1936	1392.703	NaN	NaN	NaN	NaN	NaN	NaN	NaN	NaN	NaN	NaN	NaN	NaN	NaN	NaN	NaN	NaN	NaN	NaN	NaN	NaN	NaN
141	1.4	338.91559	1622.01221	1339.80457	341.34177	1632.20483	1472.51123	225.22853	1550.89087	1351.0564	232.02325	1561.29199	1481.27869	227.02596	1398.76697	1400.24841	220.1732	1088.8501	1397.55359	355.39111	1336.83643	1411.77087	416.86612	1176.25159	1407.15479	186.27322	1217.24536	1482.64148	322.13184	1372.86267	1253.79761	370.31494	1188.92688	1175.62708	419.01166	1076.19312	1160.76001	499.39789	974.7124	1171.13843	566.26581	880.60675	1212.12183	552.44385	874.39227	1158.86035	606.31378	813.16016	1174.32336	288.04187	1351.70251	1566.65601	270.38083	1130.19128	1637.04883	273.1593	1018.60162	1656.25977	270.1153	881.43073	1666.08142	294.21417	779.90741	1642.54785	252.54616	782.84473	1677.8136	264.61035	707.49829	1674.03503	385.74631	933.74554	1285.69043	382.52322	932.29413	1521.26428	223.07167	954.06622	1335.2356	221.24969	952.65411	1483.06665	295.71671	635.2901	1251.80322	261.01285	461.6264	1294.74158	168.1441	284.47311	1290.86658	98.80595	84.64555	1334.29614	49.37141	58.00263	1367.24805	241.95612	33.37265	1369.24219	404.30365	643.49579	1574.56445	489.19943	485.35983	1546.41187	486.0372	294.99969	1556.5376	511.85016	77.9165	1518.78357	476.79562	40.73457	1463.10901	653.19104	55.871	1511.86853	246.23059	1664.98206	1393.27185	NaN	NaN	NaN	NaN	NaN	NaN	NaN	NaN	NaN	NaN	NaN	NaN	NaN	NaN	NaN	NaN	NaN	NaN	NaN	NaN	NaN
142	1.41	352.37897	1620.68079	1340.15613	355.1156	1630.9043	1473.0155	238.64694	1549.54858	1351.70789	245.74785	1559.93225	1481.89148	240.40784	1397.22449	1401.06042	233.97646	1087.46533	1398.61072	368.99673	1335.51135	1412.04651	430.49762	1174.94263	1406.7998	200.47675	1215.65576	1483.40991	334.72916	1371.69666	1254.32471	384.51981	1188.74622	1175.97815	434.91928	1077.06042	1161.05396	518.78802	978.72919	1172.40173	589.67883	888.48236	1215.04053	575.67255	880.37573	1162.04712	631.97742	821.50415	1178.57849	302.22034	1350.37769	1567.18982	283.80603	1128.92871	1637.34399	285.9212	1017.34698	1656.6178	281.20316	880.25232	1666.4845	303.8826	778.20892	1642.89795	262.46027	781.97052	1678.39746	272.63605	706.08948	1674.27148	397.95483	931.92206	1285.104	397.70322	931.11682	1520.94287	235.93192	952.22015	1337.0094	235.84061	951.44373	1484.87927	305.62817	634.39337	1252.37146	269.08594	460.84161	1295.29077	172.93536	285.35071	1291.63135	99.88874	86.9848	1334.96594	49.96791	61.08686	1368.05554	242.04759	33.29849	1369.25537	414.42288	641.26215	1576.36597	501.33289	483.59042	1546.08374	506.73172	294.5015	1558.14331	542.62006	78.39964	1522.33032	508.27396	39.50873	1467.08411	684.75189	60.73228	1513.53235	259.59875	1663.04968	1394.0874	NaN	NaN	NaN	NaN	NaN	NaN	NaN	NaN	NaN	NaN	NaN	NaN	NaN	NaN	NaN	NaN	NaN	NaN	NaN	NaN	NaN
143	1.42	365.92551	1619.39404	1340.57312	368.8472	1629.68103	1473.32275	252.10764	1548.29407	1352.39795	259.51187	1558.7533	1482.51428	253.82224	1395.93201	1401.9314	247.97797	1086.21399	1399.80066	382.61472	1334.26172	1412.20349	444.24164	1173.77393	1406.51257	214.74921	1214.20923	1484.37122	347.25372	1370.6001	1254.91492	398.26666	1188.48792	1176.22388	450.22659	1077.63464	1161.2522	537.49219	982.8858	1173.80164	611.97583	896.41827	1217.78479	598.07843	886.52942	1165.49255	656.71881	830.34863	1182.84192	316.69794	1349.10339	1567.76196	297.5184	1127.80383	1637.85388	298.9776	1016.2077	1657.12463	292.99527	879.09424	1666.90564	314.28952	776.71436	1643.09363	273.35388	781.03217	1678.92383	281.85693	704.85938	1674.34424	410.65411	930.45062	1285.03809	412.8732	929.88403	1520.68835	249.371	950.56146	1338.76318	250.66708	950.42175	1486.66504	316.26117	633.42859	1252.61987	277.98932	459.99954	1295.67053	178.33885	286.44046	1292.21729	100.81911	89.87383	1335.69836	50.89593	64.80518	1368.85315	242.27354	33.26148	1369.41968	424.86618	639.77338	1578.43298	513.60901	482.30133	1546.35046	525.88605	294.26208	1559.64197	569.50446	79.30964	1525.09631	536.0802	38.43272	1470.34058	712.40125	65.97468	1514.90784	273.63757	1662.28625	1394.35571	NaN	NaN	NaN	NaN	NaN	NaN	NaN	NaN	NaN	NaN	NaN	NaN	NaN	NaN	NaN	NaN	NaN	NaN	NaN	NaN	NaN
144	1.43	379.36603	1618.22839	1340.90503	382.61795	1628.57593	1473.58899	265.7034	1547.09619	1353.06335	273.34363	1557.70276	1483.19385	267.34009	1394.67786	1402.75671	262.0206	1085.05493	1400.96741	396.28976	1333.16479	1412.40515	458.1214	1172.81921	1406.22937	229.16972	1212.87463	1485.50549	359.74243	1369.63794	1255.56189	411.4404	1188.22559	1176.54004	465.02325	1078.33728	1161.6261	555.30566	986.93927	1175.3186	633.12445	904.466	1220.51257	619.19653	892.70825	1168.75867	680.31732	839.52155	1186.91479	331.18173	1347.91797	1568.328	311.39096	1126.79211	1638.45374	312.29333	1015.20099	1657.7804	305.40652	878.03009	1667.49902	325.40005	775.32587	1643.08582	285.09518	780.21521	1679.70325	292.32025	703.87665	1674.57813	423.5184	929.00745	1284.8844	428.29019	928.96704	1520.53088	262.77689	949.12482	1340.70129	265.66165	949.60278	1488.45691	327.28067	632.67084	1253.17603	287.72519	459.53632	1296.04114	183.93652	287.77478	1293.11658	102.6198	92.74819	1336.05676	52.04505	68.91467	1369.36292	242.35732	33.11446	1369.58435	436.52896	638.83185	1580.51831	526.03571	481.40631	1546.99292	543.28717	293.93515	1560.92188	591.96985	79.7273	1526.75647	559.99536	37.57877	1472.86133	735.91541	70.70745	1515.9646	286.76669	1661.40454	1395.0321	NaN	NaN	NaN	NaN	NaN	NaN	NaN	NaN	NaN	NaN	NaN	NaN	NaN	NaN	NaN	NaN	NaN	NaN	NaN	NaN	NaN
145	1.44	392.85654	1617.19336	1341.1991	396.36728	1627.67944	1473.89832	279.25449	1545.98193	1353.73694	287.20328	1556.72058	1483.85046	280.87863	1393.64001	1403.7688	276.40039	1083.92041	1402.08679	410.05627	1332.30566	1412.74902	472.11063	1172.05664	1405.99902	243.49438	1211.71497	1486.86194	372.00208	1368.8634	1256.2345	424.0813	1187.91089	1176.83118	479.39343	1079.07764	1162.18176	572.33667	991.03467	1176.97095	653.06445	912.42273	1223.07837	638.96393	898.67285	1171.94226	702.72339	848.86896	1190.67114	346.27679	1346.78613	1569.07617	325.53119	1125.89636	1639.19128	326.0322	1014.16541	1658.46765	318.35635	877.12482	1668.10486	337.28522	774.17889	1642.9762	297.78244	779.40631	1680.46362	303.45959	702.64667	1674.4115	436.896	927.76117	1284.98328	443.70105	928.198	1520.66479	276.43915	947.80499	1342.5304	280.69354	949.02673	1490.09973	338.66525	632.11621	1253.74377	298.16605	458.99344	1296.03333	190.40753	289.28915	1293.40393	104.35423	96.56192	1336.43823	53.58446	73.83116	1369.68164	242.52884	33.00519	1369.65698	450.35681	638.42334	1581.84314	538.60291	480.63651	1547.81799	559.02521	293.40771	1561.97192	610.92126	79.73673	1528.11816	579.64642	36.69532	1474.53125	755.29333	73.62501	1516.55627	300.63837	1660.21631	1395.41589	NaN	NaN	NaN	NaN	NaN	NaN	NaN	NaN	NaN	NaN	NaN	NaN	NaN	NaN	NaN	NaN	NaN	NaN	NaN	NaN	NaN
146	1.45	406.35452	1616.23413	1341.48279	410.19894	1626.9502	1474.10986	292.77707	1545.01245	1354.46643	301.1171	1555.94238	1484.49988	294.48004	1392.70251	1404.82751	290.88345	1082.88525	1403.11572	423.81149	1331.62854	1413.03406	486.27689	1171.56079	1405.81763	258.20395	1210.60693	1488.18933	384.10434	1368.38904	1256.96606	436.36282	1187.79382	1177.23401	493.11508	1079.77039	1163.05139	588.34503	994.91931	1178.62927	671.59814	919.99524	1225.24023	657.1806	904.09503	1174.98975	723.67883	858.13782	1193.97351	361.20901	1345.86499	1569.77893	339.97342	1125.11133	1640.07104	340.08658	1013.31	1659.35229	332.03394	876.2276	1668.68201	349.81177	773.20093	1642.64795	311.32245	778.74658	1681.42566	315.82913	701.60419	1674.23511	450.2854	926.3717	1284.77747	459.18988	927.60895	1520.96216	290.76822	946.45465	1344.23792	295.86102	948.72992	1491.63623	350.65668	631.7254	1253.90833	309.4682	458.58209	1295.74609	197.76637	291.0629	1293.32275	106.79428	100.5636	1336.33582	55.53063	79.38653	1369.73547	242.74396	32.88835	1369.73499	466.17065	638.44159	1582.54626	551.414	480.01141	1548.60754	572.99194	292.55212	1562.83923	626.09503	78.989	1528.97437	595.09973	35.8012	1475.83142	770.69049	74.09632	1516.63818	314.14633	1659.00269	1396.05151	NaN	NaN	NaN	NaN	NaN	NaN	NaN	NaN	NaN	NaN	NaN	NaN	NaN	NaN	NaN	NaN	NaN	NaN	NaN	NaN	NaN
